ffmpeg started on 2026-04-01 at 11:34:10
Report written to "D:\Convert\FFMetrics\reports\psnr_report-6.txt"
Log level: 32
Command line:
ffmpeg -hide_banner -nostdin -r 24000/1001 -i "F:\\Convert\\files\\[DC] Make Heroine ga Oosugiru - 07_Telegram_HEVC(271).mkv" -r 24000/1001 -i "F:\\Convert\\files\\[DC] Make Heroine ga Oosugiru - 07_Telegram.mp4" -lavfi "[0:v]settb=AVTB,setpts=PTS-STARTPTS,format=pix_fmts=yuv420p10le,fps=24000/1001,scale=1920:1080:flags=lanczos:param0=3:out_range=limited:out_color_matrix=bt709:out_chroma_loc=left,setsar=1/1,setdar=(1920/1080)*(1/1),colorspace=format=yuv420p10:range=tv:primaries=bt709:trc=bt709:space=bt709:fast=0[main];[1:v]settb=AVTB,setpts=PTS-STARTPTS,format=pix_fmts=yuv420p,fps=24000/1001,scale=1920:1080:flags=lanczos:param0=3:out_range=limited:out_color_matrix=bt709:out_chroma_loc=left,setsar=1/1,setdar=(1920/1080)*(1/1),colorspace=format=yuv420p:range=tv:primaries=bt709:trc=bt709:space=bt709:fast=0[ref];[main][ref]psnr=eof_action=endall:stats_file='D\\:/Convert/FFMetrics/logs/psnr_logfile-6.txt'" -f null -
Input #0, matroska,webm, from 'F:\Convert\files\[DC] Make Heroine ga Oosugiru - 07_Telegram_HEVC(271).mkv':
  Metadata:
    COMPATIBLE_BRANDS: isomiso2avc1mp41
    MAJOR_BRAND     : isom
    MINOR_VERSION   : 512
    ENCODER         : Lavf61.7.100
  Duration: 00:24:06.79, start: -0.021000, bitrate: 973 kb/s
  Stream #0:0: Video: hevc (Main 10), yuv420p10le(tv, bt709, progressive), 1920x1080 [SAR 1:1 DAR 16:9], 23.98 fps, 23.98 tbr, 1k tbn (default)
      Metadata:
        HANDLER_NAME    : VideoHandler
        VENDOR_ID       : [0][0][0][0]
        ENCODER         : Lavc61.19.100 libx265
        BPS             : 775900
        DURATION        : 00:24:06.569708333
        NUMBER_OF_FRAMES: 34683
        NUMBER_OF_BYTES : 140299213
        _STATISTICS_WRITING_APP: mkvpropedit v94.0 ('Initiate') 64-bit
        _STATISTICS_WRITING_DATE_UTC: 2026-03-30 12:17:35
        _STATISTICS_TAGS: BPS DURATION NUMBER_OF_FRAMES NUMBER_OF_BYTES
  Stream #0:1: Audio: aac (LC), 48000 Hz, stereo, fltp (default)
      Metadata:
        HANDLER_NAME    : SoundHandler
        VENDOR_ID       : [0][0][0][0]
        ENCODER         : Lavc61.19.100 aac
        BPS             : 193194
        DURATION        : 00:24:06.784000000
        NUMBER_OF_FRAMES: 67819
        NUMBER_OF_BYTES : 34938755
        _STATISTICS_WRITING_APP: mkvpropedit v94.0 ('Initiate') 64-bit
        _STATISTICS_WRITING_DATE_UTC: 2026-03-30 12:17:35
        _STATISTICS_TAGS: BPS DURATION NUMBER_OF_FRAMES NUMBER_OF_BYTES
Input #1, mov,mp4,m4a,3gp,3g2,mj2, from 'F:\Convert\files\[DC] Make Heroine ga Oosugiru - 07_Telegram.mp4':
  Metadata:
    major_brand     : isom
    minor_version   : 512
    compatible_brands: isomiso2avc1mp41
    encoder         : Lavf60.16.100
  Duration: 00:24:06.74, start: 0.000000, bitrate: 3764 kb/s
  Stream #1:0[0x1](und): Video: h264 (High) (avc1 / 0x31637661), yuv420p(tv, bt709, progressive), 1920x1080 [SAR 1:1 DAR 16:9], 3616 kb/s, 23.98 fps, 23.98 tbr, 24k tbn (default)
      Metadata:
        handler_name    : VideoHandler
        vendor_id       : [0][0][0][0]
        encoder         : Lavc60.31.102 h264_qsv
  Stream #1:1[0x2](und): Audio: aac (HE-AACv2) (mp4a / 0x6134706D), 48000 Hz, stereo, fltp, 144 kb/s (default)
      Metadata:
        handler_name    : SoundHandler
        vendor_id       : [0][0][0][0]
Stream mapping:
  Stream #0:0 (hevc) -> settb:default
  Stream #1:0 (h264) -> settb:default
  psnr:default -> Stream #0:0 (wrapped_avframe)
  Stream #0:1 -> #0:1 (aac (native) -> pcm_s16le (native))
Output #0, null, to 'pipe:':
  Metadata:
    COMPATIBLE_BRANDS: isomiso2avc1mp41
    MAJOR_BRAND     : isom
    MINOR_VERSION   : 512
    encoder         : Lavf61.7.100
  Stream #0:0: Video: wrapped_avframe, yuv420p10le(tv, bt709, progressive), 1920x1080 [SAR 1:1 DAR 16:9], q=2-31, 200 kb/s, 23.98 fps, 23.98 tbn
      Metadata:
        encoder         : Lavc61.19.100 wrapped_avframe
  Stream #0:1: Audio: pcm_s16le, 48000 Hz, stereo, s16, 1536 kb/s (default)
      Metadata:
        HANDLER_NAME    : SoundHandler
        VENDOR_ID       : [0][0][0][0]
        _STATISTICS_TAGS: BPS DURATION NUMBER_OF_FRAMES NUMBER_OF_BYTES
        BPS             : 193194
        DURATION        : 00:24:06.784000000
        NUMBER_OF_FRAMES: 67819
        NUMBER_OF_BYTES : 34938755
        _STATISTICS_WRITING_APP: mkvpropedit v94.0 ('Initiate') 64-bit
        _STATISTICS_WRITING_DATE_UTC: 2026-03-30 12:17:35
        encoder         : Lavc61.19.100 pcm_s16le
frame=  120 fps=0.0 q=-0.0 size=N/A time=00:00:05.00 bitrate=N/A speed=9.53x    frame=  285 fps=275 q=-0.0 size=N/A time=00:00:11.88 bitrate=N/A speed=11.5x    frame=  483 fps=309 q=-0.0 size=N/A time=00:00:20.14 bitrate=N/A speed=12.9x    frame=  669 fps=323 q=-0.0 size=N/A time=00:00:27.90 bitrate=N/A speed=13.5x    frame=  864 fps=335 q=-0.0 size=N/A time=00:00:36.03 bitrate=N/A speed=  14x    frame=  993 fps=320 q=-0.0 size=N/A time=00:00:41.41 bitrate=N/A speed=13.3x    frame= 1142 fps=316 q=-0.0 size=N/A time=00:00:47.63 bitrate=N/A speed=13.2x    frame= 1291 fps=313 q=-0.0 size=N/A time=00:00:53.84 bitrate=N/A speed=  13x    frame= 1449 fps=312 q=-0.0 size=N/A time=00:01:00.43 bitrate=N/A speed=  13x    frame= 1586 fps=307 q=-0.0 size=N/A time=00:01:06.14 bitrate=N/A speed=12.8x    frame= 1725 fps=304 q=-0.0 size=N/A time=00:01:11.94 bitrate=N/A speed=12.7x    frame= 1886 fps=305 q=-0.0 size=N/A time=00:01:18.66 bitrate=N/A speed=12.7x    frame= 2043 fps=305 q=-0.0 size=N/A time=00:01:25.21 bitrate=N/A speed=12.7x    frame= 2149 fps=297 q=-0.0 size=N/A time=00:01:29.63 bitrate=N/A speed=12.4x    frame= 2289 fps=296 q=-0.0 size=N/A time=00:01:35.47 bitrate=N/A speed=12.3x    frame= 2427 fps=294 q=-0.0 size=N/A time=00:01:41.22 bitrate=N/A speed=12.3x    frame= 2554 fps=291 q=-0.0 size=N/A time=00:01:46.52 bitrate=N/A speed=12.1x    frame= 2711 fps=292 q=-0.0 size=N/A time=00:01:53.07 bitrate=N/A speed=12.2x    frame= 2871 fps=293 q=-0.0 size=N/A time=00:01:59.74 bitrate=N/A speed=12.2x    frame= 3040 fps=294 q=-0.0 size=N/A time=00:02:06.79 bitrate=N/A speed=12.3x    frame= 3222 fps=297 q=-0.0 size=N/A time=00:02:14.38 bitrate=N/A speed=12.4x    frame= 3406 fps=300 q=-0.0 size=N/A time=00:02:22.05 bitrate=N/A speed=12.5x    frame= 3593 fps=303 q=-0.0 size=N/A time=00:02:29.85 bitrate=N/A speed=12.6x    frame= 3780 fps=305 q=-0.0 size=N/A time=00:02:37.65 bitrate=N/A speed=12.7x    frame= 3962 fps=307 q=-0.0 size=N/A time=00:02:45.24 bitrate=N/A speed=12.8x    frame= 4146 fps=309 q=-0.0 size=N/A time=00:02:52.92 bitrate=N/A speed=12.9x    frame= 4323 fps=310 q=-0.0 size=N/A time=00:03:00.30 bitrate=N/A speed=12.9x    frame= 4501 fps=312 q=-0.0 size=N/A time=00:03:07.72 bitrate=N/A speed=  13x    frame= 4693 fps=314 q=-0.0 size=N/A time=00:03:15.73 bitrate=N/A speed=13.1x    frame= 4873 fps=315 q=-0.0 size=N/A time=00:03:23.24 bitrate=N/A speed=13.1x    frame= 5053 fps=316 q=-0.0 size=N/A time=00:03:30.75 bitrate=N/A speed=13.2x    frame= 5244 fps=318 q=-0.0 size=N/A time=00:03:38.71 bitrate=N/A speed=13.2x    frame= 5420 fps=318 q=-0.0 size=N/A time=00:03:46.05 bitrate=N/A speed=13.3x    frame= 5605 fps=320 q=-0.0 size=N/A time=00:03:53.77 bitrate=N/A speed=13.3x    frame= 5793 fps=321 q=-0.0 size=N/A time=00:04:01.61 bitrate=N/A speed=13.4x    frame= 5973 fps=322 q=-0.0 size=N/A time=00:04:09.12 bitrate=N/A speed=13.4x    frame= 6151 fps=322 q=-0.0 size=N/A time=00:04:16.54 bitrate=N/A speed=13.4x    frame= 6339 fps=323 q=-0.0 size=N/A time=00:04:24.38 bitrate=N/A speed=13.5x    frame= 6522 fps=324 q=-0.0 size=N/A time=00:04:32.02 bitrate=N/A speed=13.5x    frame= 6706 fps=325 q=-0.0 size=N/A time=00:04:39.69 bitrate=N/A speed=13.6x    frame= 6892 fps=326 q=-0.0 size=N/A time=00:04:47.45 bitrate=N/A speed=13.6x    frame= 7073 fps=326 q=-0.0 size=N/A time=00:04:55.00 bitrate=N/A speed=13.6x    frame= 7249 fps=327 q=-0.0 size=N/A time=00:05:02.34 bitrate=N/A speed=13.6x    frame= 7429 fps=327 q=-0.0 size=N/A time=00:05:09.85 bitrate=N/A speed=13.7x    frame= 7607 fps=328 q=-0.0 size=N/A time=00:05:17.27 bitrate=N/A speed=13.7x    frame= 7775 fps=328 q=-0.0 size=N/A time=00:05:24.28 bitrate=N/A speed=13.7x    frame= 7953 fps=328 q=-0.0 size=N/A time=00:05:31.70 bitrate=N/A speed=13.7x    frame= 8125 fps=328 q=-0.0 size=N/A time=00:05:38.88 bitrate=N/A speed=13.7x    frame= 8309 fps=329 q=-0.0 size=N/A time=00:05:46.55 bitrate=N/A speed=13.7x    frame= 8489 fps=329 q=-0.0 size=N/A time=00:05:54.06 bitrate=N/A speed=13.7x    frame= 8659 fps=329 q=-0.0 size=N/A time=00:06:01.15 bitrate=N/A speed=13.7x    frame= 8844 fps=330 q=-0.0 size=N/A time=00:06:08.86 bitrate=N/A speed=13.8x    frame= 9012 fps=330 q=-0.0 size=N/A time=00:06:15.87 bitrate=N/A speed=13.8x    frame= 9196 fps=330 q=-0.0 size=N/A time=00:06:23.54 bitrate=N/A speed=13.8x    frame= 9365 fps=330 q=-0.0 size=N/A time=00:06:30.59 bitrate=N/A speed=13.8x    frame= 9539 fps=330 q=-0.0 size=N/A time=00:06:37.85 bitrate=N/A speed=13.8x    frame= 9699 fps=330 q=-0.0 size=N/A time=00:06:44.52 bitrate=N/A speed=13.8x    frame= 9874 fps=330 q=-0.0 size=N/A time=00:06:51.82 bitrate=N/A speed=13.8x    frame=10056 fps=331 q=-0.0 size=N/A time=00:06:59.41 bitrate=N/A speed=13.8x    frame=10233 fps=331 q=-0.0 size=N/A time=00:07:06.80 bitrate=N/A speed=13.8x    frame=10407 fps=331 q=-0.0 size=N/A time=00:07:14.05 bitrate=N/A speed=13.8x    frame=10568 fps=330 q=-0.0 size=N/A time=00:07:20.77 bitrate=N/A speed=13.8x    frame=10740 fps=330 q=-0.0 size=N/A time=00:07:27.94 bitrate=N/A speed=13.8x    frame=10905 fps=330 q=-0.0 size=N/A time=00:07:34.82 bitrate=N/A speed=13.8x    frame=11071 fps=330 q=-0.0 size=N/A time=00:07:41.75 bitrate=N/A speed=13.8x    frame=11229 fps=330 q=-0.0 size=N/A time=00:07:48.34 bitrate=N/A speed=13.8x    frame=11403 fps=330 q=-0.0 size=N/A time=00:07:55.60 bitrate=N/A speed=13.8x    frame=11568 fps=330 q=-0.0 size=N/A time=00:08:02.48 bitrate=N/A speed=13.8x    frame=11748 fps=330 q=-0.0 size=N/A time=00:08:09.98 bitrate=N/A speed=13.8x    frame=11913 fps=330 q=-0.0 size=N/A time=00:08:16.87 bitrate=N/A speed=13.8x    frame=12091 fps=330 q=-0.0 size=N/A time=00:08:24.29 bitrate=N/A speed=13.8x    frame=12276 fps=330 q=-0.0 size=N/A time=00:08:32.01 bitrate=N/A speed=13.8x    frame=12447 fps=330 q=-0.0 size=N/A time=00:08:39.14 bitrate=N/A speed=13.8x    frame=12621 fps=331 q=-0.0 size=N/A time=00:08:46.40 bitrate=N/A speed=13.8x    frame=12797 fps=331 q=-0.0 size=N/A time=00:08:53.74 bitrate=N/A speed=13.8x    frame=12984 fps=331 q=-0.0 size=N/A time=00:09:01.54 bitrate=N/A speed=13.8x    frame=13160 fps=331 q=-0.0 size=N/A time=00:09:08.88 bitrate=N/A speed=13.8x    frame=13337 fps=331 q=-0.0 size=N/A time=00:09:16.26 bitrate=N/A speed=13.8x    frame=13518 fps=332 q=-0.0 size=N/A time=00:09:23.81 bitrate=N/A speed=13.8x    frame=13689 fps=332 q=-0.0 size=N/A time=00:09:30.94 bitrate=N/A speed=13.8x    frame=13863 fps=332 q=-0.0 size=N/A time=00:09:38.20 bitrate=N/A speed=13.8x    frame=14037 fps=332 q=-0.0 size=N/A time=00:09:45.45 bitrate=N/A speed=13.8x    frame=14200 fps=332 q=-0.0 size=N/A time=00:09:52.25 bitrate=N/A speed=13.8x    frame=14373 fps=332 q=-0.0 size=N/A time=00:09:59.47 bitrate=N/A speed=13.8x    frame=14552 fps=332 q=-0.0 size=N/A time=00:10:06.93 bitrate=N/A speed=13.8x    frame=14729 fps=332 q=-0.0 size=N/A time=00:10:14.32 bitrate=N/A speed=13.8x    frame=14904 fps=332 q=-0.0 size=N/A time=00:10:21.62 bitrate=N/A speed=13.9x    frame=15077 fps=332 q=-0.0 size=N/A time=00:10:28.83 bitrate=N/A speed=13.9x    frame=15222 fps=332 q=-0.0 size=N/A time=00:10:34.88 bitrate=N/A speed=13.8x    frame=15393 fps=332 q=-0.0 size=N/A time=00:10:42.01 bitrate=N/A speed=13.8x    frame=15564 fps=332 q=-0.0 size=N/A time=00:10:49.14 bitrate=N/A speed=13.8x    frame=15734 fps=332 q=-0.0 size=N/A time=00:10:56.23 bitrate=N/A speed=13.8x    frame=15920 fps=332 q=-0.0 size=N/A time=00:11:03.99 bitrate=N/A speed=13.8x    frame=16091 fps=332 q=-0.0 size=N/A time=00:11:11.12 bitrate=N/A speed=13.8x    frame=16267 fps=332 q=-0.0 size=N/A time=00:11:18.46 bitrate=N/A speed=13.8x    frame=16437 fps=332 q=-0.0 size=N/A time=00:11:25.55 bitrate=N/A speed=13.8x    frame=16617 fps=332 q=-0.0 size=N/A time=00:11:33.06 bitrate=N/A speed=13.9x    frame=16788 fps=332 q=-0.0 size=N/A time=00:11:40.19 bitrate=N/A speed=13.9x    frame=16967 fps=332 q=-0.0 size=N/A time=00:11:47.66 bitrate=N/A speed=13.9x    frame=17145 fps=332 q=-0.0 size=N/A time=00:11:55.08 bitrate=N/A speed=13.9x    frame=17323 fps=333 q=-0.0 size=N/A time=00:12:02.51 bitrate=N/A speed=13.9x    frame=17503 fps=333 q=-0.0 size=N/A time=00:12:10.02 bitrate=N/A speed=13.9x    frame=17665 fps=332 q=-0.0 size=N/A time=00:12:16.77 bitrate=N/A speed=13.9x    frame=17840 fps=333 q=-0.0 size=N/A time=00:12:24.07 bitrate=N/A speed=13.9x    frame=18021 fps=333 q=-0.0 size=N/A time=00:12:31.62 bitrate=N/A speed=13.9x    frame=18200 fps=333 q=-0.0 size=N/A time=00:12:39.09 bitrate=N/A speed=13.9x    frame=18367 fps=333 q=-0.0 size=N/A time=00:12:46.05 bitrate=N/A speed=13.9x    frame=18552 fps=333 q=-0.0 size=N/A time=00:12:53.77 bitrate=N/A speed=13.9x    frame=18730 fps=333 q=-0.0 size=N/A time=00:13:01.19 bitrate=N/A speed=13.9x    frame=18911 fps=333 q=-0.0 size=N/A time=00:13:08.74 bitrate=N/A speed=13.9x    frame=19092 fps=333 q=-0.0 size=N/A time=00:13:16.29 bitrate=N/A speed=13.9x    frame=19272 fps=334 q=-0.0 size=N/A time=00:13:23.80 bitrate=N/A speed=13.9x    frame=19445 fps=334 q=-0.0 size=N/A time=00:13:31.01 bitrate=N/A speed=13.9x    frame=19624 fps=334 q=-0.0 size=N/A time=00:13:38.48 bitrate=N/A speed=13.9x    frame=19796 fps=334 q=-0.0 size=N/A time=00:13:45.65 bitrate=N/A speed=13.9x    frame=19974 fps=334 q=-0.0 size=N/A time=00:13:53.08 bitrate=N/A speed=13.9x    frame=20155 fps=334 q=-0.0 size=N/A time=00:14:00.63 bitrate=N/A speed=13.9x    frame=20341 fps=334 q=-0.0 size=N/A time=00:14:08.38 bitrate=N/A speed=13.9x    frame=20507 fps=334 q=-0.0 size=N/A time=00:14:15.31 bitrate=N/A speed=13.9x    frame=20675 fps=334 q=-0.0 size=N/A time=00:14:22.31 bitrate=N/A speed=13.9x    frame=20861 fps=334 q=-0.0 size=N/A time=00:14:30.07 bitrate=N/A speed=13.9x    frame=21044 fps=334 q=-0.0 size=N/A time=00:14:37.71 bitrate=N/A speed=13.9x    frame=21217 fps=334 q=-0.0 size=N/A time=00:14:44.92 bitrate=N/A speed=13.9x    frame=21392 fps=334 q=-0.0 size=N/A time=00:14:52.22 bitrate=N/A speed=13.9x    frame=21567 fps=335 q=-0.0 size=N/A time=00:14:59.52 bitrate=N/A speed=  14x    frame=21751 fps=335 q=-0.0 size=N/A time=00:15:07.19 bitrate=N/A speed=  14x    frame=21925 fps=335 q=-0.0 size=N/A time=00:15:14.45 bitrate=N/A speed=  14x    frame=22100 fps=335 q=-0.0 size=N/A time=00:15:21.75 bitrate=N/A speed=  14x    frame=22280 fps=335 q=-0.0 size=N/A time=00:15:29.26 bitrate=N/A speed=  14x    frame=22462 fps=335 q=-0.0 size=N/A time=00:15:36.85 bitrate=N/A speed=  14x    frame=22644 fps=335 q=-0.0 size=N/A time=00:15:44.44 bitrate=N/A speed=  14x    frame=22807 fps=335 q=-0.0 size=N/A time=00:15:51.24 bitrate=N/A speed=  14x    frame=22972 fps=335 q=-0.0 size=N/A time=00:15:58.12 bitrate=N/A speed=  14x    frame=23158 fps=335 q=-0.0 size=N/A time=00:16:05.88 bitrate=N/A speed=  14x    frame=23332 fps=335 q=-0.0 size=N/A time=00:16:13.13 bitrate=N/A speed=  14x    frame=23504 fps=335 q=-0.0 size=N/A time=00:16:20.31 bitrate=N/A speed=  14x    frame=23685 fps=335 q=-0.0 size=N/A time=00:16:27.86 bitrate=N/A speed=  14x    frame=23863 fps=335 q=-0.0 size=N/A time=00:16:35.28 bitrate=N/A speed=  14x    frame=24035 fps=335 q=-0.0 size=N/A time=00:16:42.45 bitrate=N/A speed=  14x    frame=24208 fps=335 q=-0.0 size=N/A time=00:16:49.67 bitrate=N/A speed=  14x    frame=24382 fps=335 q=-0.0 size=N/A time=00:16:56.93 bitrate=N/A speed=  14x    frame=24562 fps=335 q=-0.0 size=N/A time=00:17:04.44 bitrate=N/A speed=  14x    frame=24745 fps=335 q=-0.0 size=N/A time=00:17:12.07 bitrate=N/A speed=  14x    frame=24924 fps=335 q=-0.0 size=N/A time=00:17:19.53 bitrate=N/A speed=  14x    frame=25095 fps=335 q=-0.0 size=N/A time=00:17:26.67 bitrate=N/A speed=  14x    frame=25276 fps=336 q=-0.0 size=N/A time=00:17:34.21 bitrate=N/A speed=  14x    frame=25450 fps=336 q=-0.0 size=N/A time=00:17:41.47 bitrate=N/A speed=  14x    frame=25632 fps=336 q=-0.0 size=N/A time=00:17:49.06 bitrate=N/A speed=  14x    frame=25804 fps=336 q=-0.0 size=N/A time=00:17:56.24 bitrate=N/A speed=  14x    frame=25979 fps=336 q=-0.0 size=N/A time=00:18:03.54 bitrate=N/A speed=  14x    frame=26158 fps=336 q=-0.0 size=N/A time=00:18:11.00 bitrate=N/A speed=  14x    frame=26328 fps=336 q=-0.0 size=N/A time=00:18:18.09 bitrate=N/A speed=  14x    frame=26506 fps=336 q=-0.0 size=N/A time=00:18:25.52 bitrate=N/A speed=  14x    frame=26679 fps=336 q=-0.0 size=N/A time=00:18:32.73 bitrate=N/A speed=  14x    frame=26848 fps=336 q=-0.0 size=N/A time=00:18:39.78 bitrate=N/A speed=  14x    frame=27001 fps=335 q=-0.0 size=N/A time=00:18:46.16 bitrate=N/A speed=  14x    frame=27163 fps=335 q=-0.0 size=N/A time=00:18:52.92 bitrate=N/A speed=  14x    frame=27326 fps=335 q=-0.0 size=N/A time=00:18:59.72 bitrate=N/A speed=  14x    frame=27499 fps=335 q=-0.0 size=N/A time=00:19:06.93 bitrate=N/A speed=  14x    frame=27667 fps=335 q=-0.0 size=N/A time=00:19:13.94 bitrate=N/A speed=  14x    frame=27837 fps=335 q=-0.0 size=N/A time=00:19:21.03 bitrate=N/A speed=  14x    frame=28006 fps=335 q=-0.0 size=N/A time=00:19:28.08 bitrate=N/A speed=  14x    frame=28179 fps=335 q=-0.0 size=N/A time=00:19:35.29 bitrate=N/A speed=  14x    frame=28359 fps=335 q=-0.0 size=N/A time=00:19:42.80 bitrate=N/A speed=  14x    frame=28535 fps=335 q=-0.0 size=N/A time=00:19:50.14 bitrate=N/A speed=  14x    frame=28705 fps=335 q=-0.0 size=N/A time=00:19:57.23 bitrate=N/A speed=  14x    frame=28858 fps=335 q=-0.0 size=N/A time=00:20:03.61 bitrate=N/A speed=  14x    frame=29006 fps=335 q=-0.0 size=N/A time=00:20:09.79 bitrate=N/A speed=  14x    frame=29168 fps=335 q=-0.0 size=N/A time=00:20:16.54 bitrate=N/A speed=  14x    frame=29339 fps=335 q=-0.0 size=N/A time=00:20:23.68 bitrate=N/A speed=  14x    frame=29484 fps=334 q=-0.0 size=N/A time=00:20:29.72 bitrate=N/A speed=13.9x    frame=29646 fps=334 q=-0.0 size=N/A time=00:20:36.48 bitrate=N/A speed=13.9x    frame=29812 fps=334 q=-0.0 size=N/A time=00:20:43.40 bitrate=N/A speed=13.9x    frame=29967 fps=334 q=-0.0 size=N/A time=00:20:49.87 bitrate=N/A speed=13.9x    frame=30124 fps=334 q=-0.0 size=N/A time=00:20:56.42 bitrate=N/A speed=13.9x    frame=30295 fps=334 q=-0.0 size=N/A time=00:21:03.55 bitrate=N/A speed=13.9x    frame=30482 fps=334 q=-0.0 size=N/A time=00:21:11.35 bitrate=N/A speed=13.9x    frame=30647 fps=334 q=-0.0 size=N/A time=00:21:18.23 bitrate=N/A speed=13.9x    frame=30824 fps=334 q=-0.0 size=N/A time=00:21:25.61 bitrate=N/A speed=13.9x    frame=31004 fps=334 q=-0.0 size=N/A time=00:21:33.12 bitrate=N/A speed=13.9x    frame=31180 fps=334 q=-0.0 size=N/A time=00:21:40.46 bitrate=N/A speed=13.9x    frame=31351 fps=334 q=-0.0 size=N/A time=00:21:47.59 bitrate=N/A speed=13.9x    frame=31522 fps=334 q=-0.0 size=N/A time=00:21:54.73 bitrate=N/A speed=13.9x    frame=31694 fps=334 q=-0.0 size=N/A time=00:22:01.90 bitrate=N/A speed=13.9x    frame=31863 fps=334 q=-0.0 size=N/A time=00:22:08.95 bitrate=N/A speed=13.9x    frame=32019 fps=334 q=-0.0 size=N/A time=00:22:15.45 bitrate=N/A speed=13.9x    frame=32196 fps=334 q=-0.0 size=N/A time=00:22:22.84 bitrate=N/A speed=13.9x    frame=32378 fps=334 q=-0.0 size=N/A time=00:22:30.43 bitrate=N/A speed=13.9x    frame=32556 fps=334 q=-0.0 size=N/A time=00:22:37.85 bitrate=N/A speed=13.9x    frame=32694 fps=334 q=-0.0 size=N/A time=00:22:43.61 bitrate=N/A speed=13.9x    frame=32843 fps=333 q=-0.0 size=N/A time=00:22:49.82 bitrate=N/A speed=13.9x    frame=33005 fps=333 q=-0.0 size=N/A time=00:22:56.58 bitrate=N/A speed=13.9x    frame=33173 fps=333 q=-0.0 size=N/A time=00:23:03.59 bitrate=N/A speed=13.9x    frame=33342 fps=333 q=-0.0 size=N/A time=00:23:10.63 bitrate=N/A speed=13.9x    frame=33488 fps=333 q=-0.0 size=N/A time=00:23:16.72 bitrate=N/A speed=13.9x    frame=33630 fps=333 q=-0.0 size=N/A time=00:23:22.65 bitrate=N/A speed=13.9x    frame=33761 fps=332 q=-0.0 size=N/A time=00:23:28.11 bitrate=N/A speed=13.9x    frame=33878 fps=332 q=-0.0 size=N/A time=00:23:32.99 bitrate=N/A speed=13.8x    frame=34022 fps=331 q=-0.0 size=N/A time=00:23:39.00 bitrate=N/A speed=13.8x    frame=34175 fps=331 q=-0.0 size=N/A time=00:23:45.38 bitrate=N/A speed=13.8x    frame=34310 fps=331 q=-0.0 size=N/A time=00:23:51.01 bitrate=N/A speed=13.8x    frame=34424 fps=330 q=-0.0 size=N/A time=00:23:55.76 bitrate=N/A speed=13.8x    frame=34592 fps=330 q=-0.0 size=N/A time=00:24:02.77 bitrate=N/A speed=13.8x    [Parsed_psnr_16 @ 000001f5e9c4e000] PSNR y:48.962861 u:50.339590 v:50.388612 average:49.381619 min:37.962895 max:inf
[out#0/null @ 000001f5dceedec0] video:14903KiB audio:271276KiB subtitle:0KiB other streams:0KiB global headers:0KiB muxing overhead: unknown
frame=34683 fps=330 q=-0.0 Lsize=N/A time=00:24:06.57 bitrate=N/A speed=13.8x    
